<?xml version="1.0" encoding="UTF-8" standalone="no"?>
<!-- Created with Inkscape (http://www.inkscape.org/) -->

<svg
   xmlns:dc="http://purl.org/dc/elements/1.1/"
   xmlns:cc="http://creativecommons.org/ns#"
   xmlns:rdf="http://www.w3.org/1999/02/22-rdf-syntax-ns#"
   xmlns:svg="http://www.w3.org/2000/svg"
   xmlns="http://www.w3.org/2000/svg"
   xmlns:sodipodi="http://sodipodi.sourceforge.net/DTD/sodipodi-0.dtd"
   xmlns:inkscape="http://www.inkscape.org/namespaces/inkscape"
   width="251.46706mm"
   height="50.869148mm"
   viewBox="0 0 251.46705 50.869147"
   version="1.1"
   id="svg8"
   inkscape:version="0.92.2 (5c3e80d, 2017-08-06)"
   sodipodi:docname="tubesred.svg"
   inkscape:export-filename="D:\work\tubesred\tubesred.png"
   inkscape:export-xdpi="190"
   inkscape:export-ydpi="190">
  <defs
     id="defs2" />
  <sodipodi:namedview
     id="base"
     pagecolor="#000000"
     bordercolor="#666666"
     borderopacity="1.0"
     inkscape:pageopacity="0"
     inkscape:pageshadow="2"
     inkscape:zoom="0.98994949"
     inkscape:cx="431.63664"
     inkscape:cy="89.590277"
     inkscape:document-units="mm"
     inkscape:current-layer="layer1"
     showgrid="false"
     inkscape:window-width="1920"
     inkscape:window-height="1001"
     inkscape:window-x="-9"
     inkscape:window-y="-9"
     inkscape:window-maximized="1"
     fit-margin-top="5"
     fit-margin-left="5"
     fit-margin-right="5"
     fit-margin-bottom="5" />
  <metadata
     id="metadata5">
    <rdf:RDF>
      <cc:Work
         rdf:about="">
        <dc:format>image/svg+xml</dc:format>
        <dc:type
           rdf:resource="http://purl.org/dc/dcmitype/StillImage" />
        <dc:title></dc:title>
      </cc:Work>
    </rdf:RDF>
  </metadata>
  <g
     inkscape:label="Layer 1"
     inkscape:groupmode="layer"
     id="layer1"
     transform="translate(46.140876,2.7259711)">
    <path
       inkscape:connector-curvature="0"
       id="path1011"
       style="font-style:normal;font-variant:normal;font-weight:normal;font-stretch:normal;font-size:medium;line-height:1.25;font-family:'Bauhaus 93';-inkscape-font-specification:'Bauhaus 93, ';letter-spacing:0px;word-spacing:0px;fill:#f9f9f9;fill-opacity:1;stroke:none;stroke-width:0.26458335"
       d="M -19.856595,14.597243 V 42.179362 H -31.908781 V 14.597243 h -9.232095 V 3.4850224 h 30.486691 V 14.597243 Z" />
    <path
       inkscape:connector-curvature="0"
       id="path1013"
       style="font-style:normal;font-variant:normal;font-weight:normal;font-stretch:normal;font-size:medium;line-height:1.25;font-family:'Bauhaus 93';-inkscape-font-specification:'Bauhaus 93, ';letter-spacing:0px;word-spacing:0px;fill:#f9f9f9;fill-opacity:1;stroke:none;stroke-width:0.26458335"
       d="M 20.738561,3.4850224 V 28.572561 q 0,6.633317 -4.155929,10.601966 -4.126244,3.96865 -11.0132091,3.96865 -6.857278,0 -10.5085549,-3.85526 -3.6215909,-3.85526 -3.6215909,-11.083873 V 3.4850224 H 3.4914595 V 28.175697 q 0,3.543437 2.6419819,3.543437 2.5529264,0 2.5529264,-3.543437 V 3.4850224 Z" />
    <path
       inkscape:connector-curvature="0"
       id="path1015"
       style="font-style:normal;font-variant:normal;font-weight:normal;font-stretch:normal;font-size:medium;line-height:1.25;font-family:'Bauhaus 93';-inkscape-font-specification:'Bauhaus 93, ';letter-spacing:0px;word-spacing:0px;fill:#f9f9f9;fill-opacity:1;stroke:none;stroke-width:0.26458335"
       d="m 22.838503,3.4850224 h 14.723855 q 13.091168,0 13.091168,9.8365836 0,4.875769 -4.482463,8.107386 6.501057,2.693012 6.501057,9.609802 0,5.300983 -3.829389,8.447556 -1.870167,1.502418 -4.007502,2.097715 -2.137333,0.595297 -5.758926,0.595297 h -2.28576 V 32.22939 h 2.048278 q 1.810797,0 2.552926,-0.425213 0.74213,-0.45356 0.74213,-1.559113 0,-1.870935 -3.02789,-1.870935 H 36.790543 V 18.055638 q 3.324741,0 3.324741,-2.182757 0,-2.012673 -2.998205,-2.012673 H 34.89069 V 42.179362 H 22.838503 Z" />
    <path
       inkscape:connector-curvature="0"
       id="path1017"
       style="font-style:normal;font-variant:normal;font-weight:normal;font-stretch:normal;font-size:medium;line-height:1.25;font-family:'Bauhaus 93';-inkscape-font-specification:'Bauhaus 93, ';letter-spacing:0px;word-spacing:0px;fill:#f9f9f9;fill-opacity:1;stroke:none;stroke-width:0.26458335"
       d="m 77.004954,18.537546 v 8.617641 h -7.866575 q -1.603001,0 -2.28576,0.45356 -0.653074,0.45356 -0.653074,1.530764 0,1.218943 0.68276,1.615808 0.682759,0.368518 2.790408,0.368518 h 8.104056 v 11.055525 h -9.469575 q -6.679168,0 -10.211706,-3.033182 -3.532537,-3.06153 -3.532537,-8.816073 V 15.164193 q 0,-5.5561101 3.324741,-8.6176404 3.354426,-3.0615302 9.410205,-3.0615302 H 77.776769 V 14.597243 h -7.688464 q -3.116945,0 -3.116945,1.92763 0,1.1339 0.74213,1.58746 0.74213,0.425213 2.641982,0.425213 z" />
    <path
       sodipodi:nodetypes="ccsssccscsccscscscsc"
       inkscape:connector-curvature="0"
       id="path1019"
       style="font-style:normal;font-variant:normal;font-weight:normal;font-stretch:normal;font-size:medium;line-height:1.25;font-family:'Bauhaus 93';-inkscape-font-specification:'Bauhaus 93, ';letter-spacing:0px;word-spacing:0px;fill:#f9f9f9;fill-opacity:1;stroke:none;stroke-width:0.26458335"
       d="m 101.08364,2.4902693 0.0218,11.8518467 c -0.87077,-0.283475 -1.543631,-0.425213 -2.018594,-0.425213 -0.910346,0 -1.692055,0.321272 -2.34513,0.963815 -0.653074,0.642544 -0.979612,1.417376 -0.979612,2.324495 0,0.774832 0.356223,1.757545 1.068667,2.94814 l 0.920241,1.530766 c 1.662371,2.759156 2.493558,5.423822 2.493558,7.993996 0,3.760767 -1.405101,6.945137 -4.215299,9.553107 -2.790407,2.60797 -6.016091,3.441672 -10.053277,3.441672 -1.939432,0 -4.047188,0.04507 -5.94704,-0.805354 V 30.670277 c 1.147826,0.699239 2.167018,1.048857 3.057574,1.048857 1.048877,0 1.919643,-0.283475 2.612297,-0.850425 0.712444,-0.585849 1.068666,-1.313434 1.068666,-2.182758 0,-0.566949 -0.564018,-1.80479 -1.692055,-3.713522 -1.800901,-3.023734 -2.701352,-6.047467 -2.701352,-9.0712 0,-3.647379 1.355624,-6.7845027 4.066871,-9.4113714 2.731037,-2.6457669 5.986513,-3.9686503 9.766428,-3.9686503 1.66237,0 4.876217,-0.030938 4.876217,-0.030938 z" />
    <path
       inkscape:connector-curvature="0"
       id="path1004"
       style="font-style:normal;font-variant:normal;font-weight:normal;font-stretch:normal;font-size:medium;line-height:1.25;font-family:'Bauhaus 93';-inkscape-font-specification:'Bauhaus 93, ';letter-spacing:0px;word-spacing:0px;fill:#ff0000;fill-opacity:1;stroke:none;stroke-width:0.26458332"
       d="M 115.78579,13.150723 V 42.728218 H 103.75326 V 2.2740289 h 15.44076 q 7.05355,0 10.93597,3.4971387 4.32696,3.9120535 4.32696,9.9283174 0,6.134811 -5.36425,10.343232 l 6.935,16.685501 H 123.40244 L 117.564,29.68804 V 19.285534 h 0.94837 q 3.79351,0 3.79351,-3.260044 0,-2.874767 -4.38624,-2.874767 z" />
    <path
       inkscape:connector-curvature="0"
       id="path1006"
       style="font-style:normal;font-variant:normal;font-weight:normal;font-stretch:normal;font-size:medium;line-height:1.25;font-family:'Bauhaus 93';-inkscape-font-specification:'Bauhaus 93, ';letter-spacing:0px;word-spacing:0px;fill:#ff0000;fill-opacity:1;stroke:none;stroke-width:0.26458332"
       d="m 158.9584,18.011153 v 9.009578 h -7.85374 q -1.60039,0 -2.28203,0.474188 -0.65201,0.474188 -0.65201,1.600386 0,1.274381 0.68164,1.689295 0.68165,0.385278 2.78586,0.385278 h 8.09084 v 11.55834 h -9.45413 q -6.66827,0 -10.19505,-3.171134 -3.52677,-3.200771 -3.52677,-9.217035 V 14.484378 q 0,-5.8088071 3.31931,-9.0095781 3.34896,-3.200771 9.39486,-3.200771 h 10.46178 V 13.891642 h -7.67592 q -3.11187,0 -3.11187,2.0153 0,1.185471 0.74092,1.65966 0.74092,0.444551 2.63768,0.444551 z" />
    <path
       inkscape:connector-curvature="0"
       id="path1008"
       style="font-style:normal;font-variant:normal;font-weight:normal;font-stretch:normal;font-size:medium;line-height:1.25;font-family:'Bauhaus 93';-inkscape-font-specification:'Bauhaus 93, ';letter-spacing:0px;word-spacing:0px;fill:#ff0000;fill-opacity:1;stroke:none;stroke-width:0.26458332"
       d="M 174.12298,13.891642 V 42.728218 H 162.09045 V 2.2740289 h 15.67785 q 10.3136,0 16.15204,4.6826094 6.93501,5.6013497 6.93501,15.2036627 0,9.187398 -5.92736,14.996205 -5.92735,5.808806 -15.26293,5.808806 -1.09656,0 -3.58605,-0.118547 V 30.962421 h 1.92639 q 10.52105,0 10.52105,-8.80212 0,-8.268659 -10.34323,-8.268659 z" />
    <path
       style="opacity:1;fill:#ffffff;fill-opacity:1;fill-rule:nonzero;stroke:#000000;stroke-width:5.26499987;stroke-linecap:square;stroke-linejoin:bevel;stroke-miterlimit:4;stroke-dasharray:none;stroke-opacity:1;paint-order:stroke fill markers"
       d="m 109.02196,17.408321 a 6.8035712,6.8035712 0 0 1 -6.80357,6.803571 6.8035712,6.8035712 0 0 1 -6.803565,-6.803571 6.8035712,6.8035712 0 0 1 6.803565,-6.803572 6.8035712,6.8035712 0 0 1 6.80357,6.803572 z"
       id="path854"
       inkscape:connector-curvature="0" />
  </g>
</svg>
